{"title":"The Lucky One 2012 TS Xvid READ NFO-UnKnOwN","uid":7230095,"size":1122554751,"categoryP":"video","categoryS":"movies","magnet":"?xt=urn:btih:c7ab10231b8dabec3a5bfc2dc5b5b3686c9ccc86&amp;dn=The+Lucky+One+2012+TS+Xvid+READ+NFO-UnKnOwN&amp;tr=udp%3A%2F%2Ftracker.openbittorrent.com%3A80&amp;tr=udp%3A%2F%2Fopen.demonii.com%3A1337&amp;tr=udp%3A%2F%2Ftracker.coppersurfer.tk%3A6969&amp;tr=udp%3A%2F%2Fexodus.desync.com%3A6969","seeders":1,"leechers":0,"uploader":"HeroMaster","files":-1,"time":1335807702,"description":"The Lucky One 2012 TS Xvid READ NFO UnKnOwN\n\nEncoded By .......:UnKnOwN\nRuntime ..........:1:37\nIMDb URL .........:http://www.imdb.com/title/tt1327194/\nLanguage .........:English \nFile Size ........:1.03gb \nRelease Date ......... 2012 \nSource       ......... TNZ\nFile Type    ......... Single AVI \nPS3 Compatible ....... Go For It\nGenre        ......... Horror/Thriller\n\nVideo\nID                               : 0 \nFormat                           : MPEG-4 Visual\nFormat profile                   : Advanced Simple@L5\nFormat settings, BVOP            : Yes\nFormat settings, QPel            : No\nFormat settings, GMC             : No warppoints\nFormat settings, Matrix          : Custom\nCodec ID                         : XVID \nCodec ID/Hint                    : XviD\nDuration                         : 1h 37mn\nBit rate                         : 1791kbps\nWidth                            : 680pixels \nHeight                           : 288pixels\nDisplay aspect ratio             : 4:3\nFrame rate                       : 23.997fps \nColor space                      : YUV\nChroma subsampling               : 4:2:0\nBit depth                        : 8 bits\nScan type                        : Progressive\nBits/(Pixel*Frame)               : 0.234\nStream size                      : 892 MiB (86%)\nWriting library                  : XviD 1.2.1 (UTC 2008-12-04)\n\nAudio\nID                               : 1\nFormat                           : MP3\nFormat/Info                      : MPEG\nMode extension                   : CM (complete main)\nCodec ID                         : 2000\nDuration                         : 1h 37mn\nBit rate mode                    : Constant\nBit rate                         : 128kbps\nChannel(s)                       : 2channels\nChannel positions                : Front: L R\nSampling rate                    : 48.0 KHz\nBit depth                        : 16 bits\nStream size                      : 302 MiB\nAlignment                        : Aligned on interleaves \nInterleave, duration             : 42 ms (1.00 video frame)\nInterleave, preload duration     : 512 ms \n\nSYPNOSIS\nA Marine travels to Louisiana after serving three tours in Iraq and\nsearches for the unknown woman he believes was his good\nluck charm during the war.\n\nRELEASE INFO \nVery nice cam by tnz took the 720 source not much needed,slight\nsharpen and B-level adjustments,Audio is nice line we synced to\nour encode.Read NFO our line cuts of for the last 8 mins so we muxed\ncam audio in from hopes rip. Sample Included enjoy.\n\n\nPoster:\n\n &lt;a href=&quot;\nhttp://i.imgur.com/PepJx.jpg&quot; rel=&quot;nofollow&quot; target=&quot;_NEW&quot;&gt;\nhttp://i.imgur.com/PepJx.jpg&lt;/a&gt;\n\n\nScreens:\n\n &lt;a href=&quot;\nhttp://i.imgur.com/Fxar1.png&quot; rel=&quot;nofollow&quot; target=&quot;_NEW&quot;&gt;\nhttp://i.imgur.com/Fxar1.png&lt;/a&gt;\n\n &lt;a href=&quot;\nhttp://i.imgur.com/VwBBO.png&quot; rel=&quot;nofollow&quot; target=&quot;_NEW&quot;&gt;\nhttp://i.imgur.com/VwBBO.png&lt;/a&gt;\n\n &lt;a href=&quot;\nhttp://i.imgur.com/5Aczb.png&quot; rel=&quot;nofollow&quot; target=&quot;_NEW&quot;&gt;\nhttp://i.imgur.com/5Aczb.png&lt;/a&gt;\n\n\nENJOY!","torrent":{"xt":"urn:btih:c7ab10231b8dabec3a5bfc2dc5b5b3686c9ccc86","amp;dn":"The+Lucky+One+2012+TS+Xvid+READ+NFO-UnKnOwN","amp;tr":["udp%3A%2F%2Ftracker.openbittorrent.com%3A80","udp%3A%2F%2Fopen.demonii.com%3A1337","udp%3A%2F%2Ftracker.coppersurfer.tk%3A6969","udp%3A%2F%2Fexodus.desync.com%3A6969"],"infoHash":"c7ab10231b8dabec3a5bfc2dc5b5b3686c9ccc86","infoHashBuffer":{"type":"Buffer","data":[199,171,16,35,27,141,171,236,58,91,252,45,197,181,179,104,108,156,204,134]},"announce":[],"urlList":[]}}